<?xml version="1.0" standalone="no"?>
<!DOCTYPE svg PUBLIC "-//W3C//DTD SVG 20010904//EN"
 "http://www.w3.org/TR/2001/REC-SVG-20010904/DTD/svg10.dtd">
<svg version="1.0" xmlns="http://www.w3.org/2000/svg"
 width="417.000000pt" height="417.000000pt" viewBox="0 0 417.000000 417.000000"
 preserveAspectRatio="xMidYMid meet">
<metadata>
Created by potrace 1.11, written by Peter Selinger 2001-2013
</metadata>
<g transform="translate(0.000000,417.000000) scale(0.100000,-0.100000)"
fill="#000000" stroke="none">
<path d="M1875 4163 c-22 -2 -90 -12 -150 -23 -805 -141 -1458 -745 -1660
-1534 -90 -351 -86 -745 10 -1082 77 -269 215 -537 382 -744 80 -99 279 -291
374 -362 769 -574 1836 -553 2572 50 97 80 279 269 349 363 472 632 550 1466
204 2174 -308 628 -911 1060 -1604 1149 -113 15 -365 19 -477 9z m-55 -1157
c148 -41 277 -132 333 -234 80 -146 73 -351 -15 -483 -46 -68 -137 -142 -199
-160 -21 -7 -39 -15 -39 -19 0 -3 19 -11 43 -17 64 -18 160 -85 206 -145 69
-92 94 -160 99 -267 5 -112 -9 -184 -52 -266 -62 -119 -176 -204 -333 -247
-75 -21 -100 -22 -595 -26 l-518 -3 0 946 0 946 503 -4 c443 -3 510 -6 567
-21z m1630 -591 l0 -245 -103 0 c-185 0 -282 -43 -334 -147 l-28 -58 -3 -412
-3 -413 -230 0 -229 0 0 750 0 750 230 0 229 0 3 -120 3 -120 35 45 c89 115
264 208 403 214 l27 1 0 -245z"/>
<path d="M1210 2459 l0 -201 193 4 c176 3 196 5 239 26 58 29 84 63 99 131 22
103 -35 204 -128 230 -21 6 -120 11 -220 11 l-183 0 0 -201z"/>
<path d="M1210 1720 l0 -210 198 0 c108 0 213 5 233 10 160 45 203 251 74 357
-54 45 -101 53 -314 53 l-191 0 0 -210z"/>
</g>
</svg>
